<?xml version="1.0" encoding="UTF-8" standalone="no"?>
<!DOCTYPE svg PUBLIC "-//W3C//DTD SVG 1.1//EN" "http://www.w3.org/Graphics/SVG/1.1/DTD/svg11.dtd">
<svg xmlns="http://www.w3.org/2000/svg" version="1.1" viewBox="0.00 0.00 50.00 50.00">
<path fill="#fefeff" d="
  M 48.03 24.99
  A 23.04 23.04 0.0 0 1 24.99 48.03
  A 23.04 23.04 0.0 0 1 1.95 24.99
  A 23.04 23.04 0.0 0 1 24.99 1.95
  A 23.04 23.04 0.0 0 1 48.03 24.99
  Z
  M 26.97 4.25
  Q 26.00 3.59 26.00 4.76
  L 26.00 13.52
  Q 26.00 14.04 26.52 13.99
  L 32.32 13.40
  A 0.71 0.71 0.0 0 0 32.94 12.49
  Q 31.40 7.26 26.97 4.25
  Z
  M 17.08 12.53
  Q 16.87 13.30 17.67 13.38
  L 23.48 13.99
  Q 24.00 14.04 24.00 13.52
  L 24.00 4.72
  A 0.58 0.57 -16.6 0 0 23.11 4.24
  Q 18.55 7.21 17.08 12.53
  Z
  M 10.42 11.18
  L 14.35 12.60
  Q 14.88 12.79 15.01 12.25
  Q 15.93 8.54 18.55 5.78
  A 0.39 0.38 12.6 0 0 18.15 5.15
  Q 13.53 6.67 10.19 10.18
  Q 9.54 10.86 10.42 11.18
  Z
  M 32.02 5.15
  Q 30.83 4.69 31.62 5.70
  Q 33.89 8.59 34.99 12.12
  A 0.65 0.65 0.0 0 0 35.83 12.54
  L 39.80 11.12
  Q 40.64 10.82 40.00 10.20
  Q 36.52 6.85 32.02 5.15
  Z
  M 41.35 12.56
  L 36.44 14.47
  A 0.67 0.65 -14.6 0 0 36.02 15.17
  L 37.07 23.56
  Q 37.13 24.00 37.57 24.00
  L 45.48 24.01
  Q 46.06 24.01 46.00 23.42
  Q 45.43 17.59 42.12 12.80
  Q 41.83 12.37 41.35 12.56
  Z
  M 12.91 23.54
  L 13.98 15.23
  A 0.72 0.70 15.1 0 0 13.53 14.47
  L 8.65 12.53
  A 0.57 0.57 0.0 0 0 7.97 12.73
  Q 4.48 17.53 4.01 23.48
  A 0.48 0.48 0.0 0 0 4.49 24.00
  L 12.38 24.01
  Q 12.85 24.01 12.91 23.54
  Z
  M 24.00 16.33
  A 0.40 0.40 0.0 0 0 23.64 15.93
  L 16.41 15.27
  A 0.40 0.40 0.0 0 0 15.98 15.61
  L 14.92 23.55
  A 0.40 0.40 0.0 0 0 15.32 24.00
  L 23.60 24.00
  A 0.40 0.40 0.0 0 0 24.00 23.60
  L 24.00 16.33
  Z
  M 34.06 15.50
  A 0.31 0.31 0.0 0 0 33.72 15.23
  L 26.28 15.98
  A 0.31 0.31 0.0 0 0 26.00 16.29
  L 26.00 23.69
  A 0.31 0.31 0.0 0 0 26.31 24.00
  L 34.77 24.01
  A 0.31 0.31 0.0 0 0 35.08 23.66
  L 34.06 15.50
  Z
  M 3.97 26.48
  C 3.73 29.51 6.07 34.67 7.88 37.12
  A 0.72 0.72 0.0 0 0 8.71 37.37
  L 13.59 35.57
  Q 14.07 35.39 14.01 34.89
  L 12.94 26.45
  Q 12.89 26.00 12.44 26.00
  L 4.49 26.00
  Q 4.01 26.00 3.97 26.48
  Z
  M 23.67 25.85
  L 15.40 26.15
  A 0.25 0.25 0.0 0 0 15.16 26.41
  L 15.36 32.04
  A 2.68 2.35 87.9 0 0 17.81 34.63
  L 21.89 34.48
  A 2.68 2.35 87.9 0 0 24.14 31.72
  L 23.93 26.09
  A 0.25 0.25 0.0 0 0 23.67 25.85
  Z
  M 26.00 33.57
  A 0.38 0.38 0.0 0 0 26.34 33.95
  L 33.58 34.79
  A 0.38 0.38 0.0 0 0 34.00 34.46
  L 35.10 26.43
  A 0.38 0.38 0.0 0 0 34.72 26.00
  L 26.38 26.00
  A 0.38 0.38 0.0 0 0 26.00 26.38
  L 26.00 33.57
  Z
  M 36.49 35.53
  L 41.36 37.43
  A 0.67 0.66 -62.2 0 0 42.16 37.18
  Q 45.45 32.36 45.97 26.51
  Q 46.02 26.00 45.51 26.00
  L 37.57 26.00
  Q 37.12 26.00 37.07 26.44
  L 36.05 34.80
  A 0.70 0.69 -76.5 0 0 36.49 35.53
  Z
  M 23.04 45.75
  A 0.62 0.61 -72.8 0 0 24.00 45.24
  L 24.00 36.46
  Q 24.00 35.91 23.46 35.98
  L 17.55 36.69
  Q 16.90 36.77 17.07 37.40
  Q 18.55 42.69 23.04 45.75
  Z
  M 33.04 37.20
  Q 33.17 36.75 32.70 36.70
  L 26.54 35.99
  Q 26.00 35.92 26.00 36.47
  L 26.00 45.47
  A 0.50 0.50 0.0 0 0 26.78 45.89
  Q 31.49 42.71 33.04 37.20
  Z
  M 18.11 44.95
  Q 18.67 45.17 18.39 44.64
  L 14.71 37.74
  Q 14.48 37.31 14.02 37.49
  L 10.22 38.95
  Q 9.45 39.25 10.05 39.83
  Q 13.57 43.17 18.11 44.95
  Z
  M 39.92 39.00
  L 35.83 37.47
  A 0.63 0.63 0.0 0 0 35.01 37.87
  Q 33.87 41.42 31.57 44.36
  Q 30.73 45.43 32.00 44.93
  Q 36.52 43.12 40.07 39.76
  A 0.46 0.46 0.0 0 0 39.92 39.00
  Z"
/>
</svg>
