<?xml version="1.0" encoding="UTF-8" standalone="no"?>
<!DOCTYPE svg PUBLIC "-//W3C//DTD SVG 1.1//EN" "http://www.w3.org/Graphics/SVG/1.1/DTD/svg11.dtd">
<svg xmlns="http://www.w3.org/2000/svg" version="1.1" viewBox="0.00 0.00 100.00 100.00">
<g stroke-width="2.00" fill="none" stroke-linecap="butt">
<path stroke="#617b88" vector-effect="non-scaling-stroke" d="
  M 82.99 31.28
  A 10.34 10.34 0.0 0 0 72.65 20.94
  L 27.19 20.94
  A 10.34 10.34 0.0 0 0 16.85 31.28
  L 16.85 68.66
  A 10.34 10.34 0.0 0 0 27.19 79.00
  L 72.65 79.00
  A 10.34 10.34 0.0 0 0 82.99 68.66
  L 82.99 31.28"
/>
<path stroke="#617b88" vector-effect="non-scaling-stroke" d="
  M 68.80 24.50
  Q 48.18 23.59 27.57 24.12
  C 21.97 24.26 20.28 27.51 20.18 32.82
  Q 19.85 50.16 19.80 67.49
  Q 19.78 75.96 28.51 75.98
  Q 49.74 76.03 70.96 75.99
  C 76.65 75.98 79.88 74.21 80.00 68.26
  Q 80.20 59.30 79.53 53.00"
/>
<path stroke="#b5dfeb" vector-effect="non-scaling-stroke" d="
  M 79.53 53.00
  Q 80.14 52.95 79.79 51.18"
/>
<path stroke="#617b88" vector-effect="non-scaling-stroke" d="
  M 79.79 51.18
  Q 80.30 48.62 79.64 45.86"
/>
<path stroke="#b5dfeb" vector-effect="non-scaling-stroke" d="
  M 79.64 45.86
  Q 80.94 45.87 79.73 44.02"
/>
<path stroke="#617b88" vector-effect="non-scaling-stroke" d="
  M 79.73 44.02
  Q 80.52 42.37 79.40 40.97"
/>
<path stroke="#b5dfeb" vector-effect="non-scaling-stroke" d="
  M 79.40 40.97
  Q 80.38 41.19 80.32 40.24
  C 79.86 32.66 81.43 20.95 68.80 24.50"
/>
<path stroke="#71838b" vector-effect="non-scaling-stroke" d="
  M 79.40 40.97
  Q 78.40 42.29 79.73 44.02"
/>
<path stroke="#71838b" vector-effect="non-scaling-stroke" d="
  M 79.64 45.86
  Q 78.00 48.57 79.79 51.18"
/>
<path stroke="#71838b" vector-effect="non-scaling-stroke" d="
  M 79.53 53.00
  L 79.02 62.57
  Q 78.98 63.35 78.42 62.80
  L 66.44 50.81
  A 2.74 2.74 0.0 0 0 62.56 50.81
  L 53.69 59.68
  A 0.96 0.96 0.0 0 1 52.33 59.68
  L 36.55 43.93
  A 2.92 2.92 0.0 0 0 32.42 43.94
  L 21.58 54.83
  A 0.34 0.34 0.0 0 1 21.00 54.58
  Q 21.01 43.66 20.99 32.78
  C 20.99 26.45 23.55 24.85 29.80 24.98
  Q 49.28 25.38 68.80 24.50"
/>
<path stroke="#71838b" vector-effect="non-scaling-stroke" d="
  M 71.90 37.52
  A 5.41 5.41 0.0 0 0 66.49 32.11
  A 5.41 5.41 0.0 0 0 61.08 37.52
  A 5.41 5.41 0.0 0 0 66.49 42.93
  A 5.41 5.41 0.0 0 0 71.90 37.52"
/>
<path stroke="#0f6267" vector-effect="non-scaling-stroke" d="
  M 65.24 73.87
  L 35.94 44.57
  A 2.02 2.02 0.0 0 0 33.08 44.57
  L 21.64 55.95
  Q 21.03 56.56 21.02 57.43
  C 20.93 64.65 18.18 74.92 29.17 74.97
  Q 47.22 75.04 65.09 74.98
  A 0.63 0.62 8.9 0 0 65.69 74.55
  Q 65.86 74.03 65.54 74.00
  Q 65.37 73.99 65.24 73.87"
/>
<path stroke="#386e64" vector-effect="non-scaling-stroke" d="
  M 63.46 51.11
  L 54.64 60.11
  A 1.36 1.36 0.0 0 0 54.66 62.04
  L 65.96 73.11
  A 7.88 7.66 44.4 0 0 76.95 73.15
  L 76.95 73.15
  A 7.88 7.66 44.4 0 0 76.68 62.16
  L 65.38 51.09
  A 1.36 1.36 0.0 0 0 63.46 51.11"
/>
<path stroke="#8b8242" vector-effect="non-scaling-stroke" d="
  M 70.95 37.48
  A 4.43 4.43 0.0 0 0 66.52 33.05
  A 4.43 4.43 0.0 0 0 62.09 37.48
  A 4.43 4.43 0.0 0 0 66.52 41.91
  A 4.43 4.43 0.0 0 0 70.95 37.48"
/>
</g>
<path fill="#1d1e28" d="
  M 84.9673 68.7711
  A 12.28 12.28 0.0 0 1 72.6659 81.0296
  L 27.2259 80.9503
  A 12.28 12.28 0.0 0 1 14.9674 68.6489
  L 15.0327 31.2089
  A 12.28 12.28 0.0 0 1 27.3341 18.9504
  L 72.7741 19.0297
  A 12.28 12.28 0.0 0 1 85.0326 31.3311
  L 84.9673 68.7711
  Z
  M 82.99 31.28
  A 10.34 10.34 0.0 0 0 72.65 20.94
  L 27.19 20.94
  A 10.34 10.34 0.0 0 0 16.85 31.28
  L 16.85 68.66
  A 10.34 10.34 0.0 0 0 27.19 79.00
  L 72.65 79.00
  A 10.34 10.34 0.0 0 0 82.99 68.66
  L 82.99 31.28
  Z"
/>
<path fill="#a5d7e8" d="
  M 82.99 68.66
  A 10.34 10.34 0.0 0 1 72.65 79.00
  L 27.19 79.00
  A 10.34 10.34 0.0 0 1 16.85 68.66
  L 16.85 31.28
  A 10.34 10.34 0.0 0 1 27.19 20.94
  L 72.65 20.94
  A 10.34 10.34 0.0 0 1 82.99 31.28
  L 82.99 68.66
  Z
  M 68.80 24.50
  Q 48.18 23.59 27.57 24.12
  C 21.97 24.26 20.28 27.51 20.18 32.82
  Q 19.85 50.16 19.80 67.49
  Q 19.78 75.96 28.51 75.98
  Q 49.74 76.03 70.96 75.99
  C 76.65 75.98 79.88 74.21 80.00 68.26
  Q 80.20 59.30 79.53 53.00
  Q 80.14 52.95 79.79 51.18
  Q 80.30 48.62 79.64 45.86
  Q 80.94 45.87 79.73 44.02
  Q 80.52 42.37 79.40 40.97
  Q 80.38 41.19 80.32 40.24
  C 79.86 32.66 81.43 20.95 68.80 24.50
  Z"
/>
<path fill="#c4e7ed" d="
  M 79.40 40.97
  Q 78.40 42.29 79.73 44.02
  Q 80.94 45.87 79.64 45.86
  Q 78.00 48.57 79.79 51.18
  Q 80.14 52.95 79.53 53.00
  L 79.02 62.57
  Q 78.98 63.35 78.42 62.80
  L 66.44 50.81
  A 2.74 2.74 0.0 0 0 62.56 50.81
  L 53.69 59.68
  A 0.96 0.96 0.0 0 1 52.33 59.68
  L 36.55 43.93
  A 2.92 2.92 0.0 0 0 32.42 43.94
  L 21.58 54.83
  A 0.34 0.34 0.0 0 1 21.00 54.58
  Q 21.01 43.66 20.99 32.78
  C 20.99 26.45 23.55 24.85 29.80 24.98
  Q 49.28 25.38 68.80 24.50
  C 81.43 20.95 79.86 32.66 80.32 40.24
  Q 80.38 41.19 79.40 40.97
  Z
  M 71.90 37.52
  A 5.41 5.41 0.0 0 0 66.49 32.11
  A 5.41 5.41 0.0 0 0 61.08 37.52
  A 5.41 5.41 0.0 0 0 66.49 42.93
  A 5.41 5.41 0.0 0 0 71.90 37.52
  Z"
/>
<path fill="#1d1e28" d="
  M 68.80 24.50
  Q 49.28 25.38 29.80 24.98
  C 23.55 24.85 20.99 26.45 20.99 32.78
  Q 21.01 43.66 21.00 54.58
  A 0.34 0.34 0.0 0 0 21.58 54.83
  L 32.42 43.94
  A 2.92 2.92 0.0 0 1 36.55 43.93
  L 52.33 59.68
  A 0.96 0.96 0.0 0 0 53.69 59.68
  L 62.56 50.81
  A 2.74 2.74 0.0 0 1 66.44 50.81
  L 78.42 62.80
  Q 78.98 63.35 79.02 62.57
  L 79.53 53.00
  Q 80.20 59.30 80.00 68.26
  C 79.88 74.21 76.65 75.98 70.96 75.99
  Q 49.74 76.03 28.51 75.98
  Q 19.78 75.96 19.80 67.49
  Q 19.85 50.16 20.18 32.82
  C 20.28 27.51 21.97 24.26 27.57 24.12
  Q 48.18 23.59 68.80 24.50
  Z
  M 65.24 73.87
  L 35.94 44.57
  A 2.02 2.02 0.0 0 0 33.08 44.57
  L 21.64 55.95
  Q 21.03 56.56 21.02 57.43
  C 20.93 64.65 18.18 74.92 29.17 74.97
  Q 47.22 75.04 65.09 74.98
  A 0.63 0.62 8.9 0 0 65.69 74.55
  Q 65.86 74.03 65.54 74.00
  Q 65.37 73.99 65.24 73.87
  Z
  M 63.46 51.11
  L 54.64 60.11
  A 1.36 1.36 0.0 0 0 54.66 62.04
  L 65.96 73.11
  A 7.88 7.66 44.4 0 0 76.95 73.15
  L 76.95 73.15
  A 7.88 7.66 44.4 0 0 76.68 62.16
  L 65.38 51.09
  A 1.36 1.36 0.0 0 0 63.46 51.11
  Z"
/>
<path fill="#1d1e28" d="
  M 71.90 37.52
  A 5.41 5.41 0.0 0 1 66.49 42.93
  A 5.41 5.41 0.0 0 1 61.08 37.52
  A 5.41 5.41 0.0 0 1 66.49 32.11
  A 5.41 5.41 0.0 0 1 71.90 37.52
  Z
  M 70.95 37.48
  A 4.43 4.43 0.0 0 0 66.52 33.05
  A 4.43 4.43 0.0 0 0 62.09 37.48
  A 4.43 4.43 0.0 0 0 66.52 41.91
  A 4.43 4.43 0.0 0 0 70.95 37.48
  Z"
/>
<circle fill="#f9e65c" cx="66.52" cy="37.48" r="4.43"/>
<path fill="#1d1e28" d="
  M 79.40 40.97
  Q 80.52 42.37 79.73 44.02
  Q 78.40 42.29 79.40 40.97
  Z"
/>
<path fill="#00a6a6" d="
  M 65.54 74.00
  Q 65.86 74.03 65.69 74.55
  A 0.63 0.62 8.9 0 1 65.09 74.98
  Q 47.22 75.04 29.17 74.97
  C 18.18 74.92 20.93 64.65 21.02 57.43
  Q 21.03 56.56 21.64 55.95
  L 33.08 44.57
  A 2.02 2.02 0.0 0 1 35.94 44.57
  L 65.24 73.87
  Q 65.37 73.99 65.54 74.00
  Z"
/>
<path fill="#1d1e28" d="
  M 79.64 45.86
  Q 80.30 48.62 79.79 51.18
  Q 78.00 48.57 79.64 45.86
  Z"
/>
<path fill="#52bea0" d="
  M 63.46 51.11
  A 1.36 1.36 0.0 0 1 65.38 51.09
  L 76.68 62.16
  A 7.88 7.66 44.4 0 1 76.95 73.15
  L 76.95 73.15
  A 7.88 7.66 44.4 0 1 65.96 73.11
  L 54.66 62.04
  A 1.36 1.36 0.0 0 1 54.64 60.11
  L 63.46 51.11
  Z"
/>
</svg>
