<?xml version="1.0" encoding="UTF-8" standalone="no"?>
<!DOCTYPE svg PUBLIC "-//W3C//DTD SVG 1.1//EN" "http://www.w3.org/Graphics/SVG/1.1/DTD/svg11.dtd">
<svg xmlns="http://www.w3.org/2000/svg" version="1.1" viewBox="0.00 0.00 100.00 100.00">
<g stroke-width="2.00" fill="none" stroke-linecap="butt">
<path stroke="#89813f" vector-effect="non-scaling-stroke" d="
  M 18.56 34.01
  L 78.36 34.01
  A 0.68 0.68 0.0 0 0 79.04 33.33
  L 79.04 31.34
  A 11.82 11.43 0.0 0 0 67.22 19.91
  L 29.70 19.91
  A 11.82 11.43 -0.0 0 0 17.88 31.34
  L 17.88 33.33
  A 0.68 0.68 0.0 0 0 18.56 34.01"
/>
<path stroke="#8c8d91" vector-effect="non-scaling-stroke" d="
  M 79.04 35.75
  A 0.82 0.82 0.0 0 0 78.22 34.93
  L 18.84 34.93
  A 0.82 0.82 0.0 0 0 18.02 35.75
  L 18.02 49.39
  A 0.82 0.82 0.0 0 0 18.84 50.21
  L 78.22 50.21
  A 0.82 0.82 0.0 0 0 79.04 49.39
  L 79.04 35.75"
/>
<path stroke="#8c8d91" vector-effect="non-scaling-stroke" d="
  M 60.73 67.19
  Q 57.45 65.86 61.01 66.13
  Q 69.71 66.77 78.40 65.91
  Q 79.05 65.84 79.05 65.18
  L 79.00 51.36
  Q 79.00 50.71 78.36 50.72
  L 18.53 50.93
  Q 18.00 50.93 18.00 51.47
  L 18.00 65.49
  Q 18.00 65.98 18.49 65.98
  L 55.80 66.03
  Q 56.29 66.03 56.14 66.50
  Q 56.04 66.79 55.74 66.80
  Q 41.18 67.24 18.63 66.92
  Q 18.10 66.91 18.05 67.44
  C 17.23 77.44 23.33 81.03 32.20 81.01
  Q 48.17 80.98 64.15 81.00
  C 73.35 81.02 79.67 78.01 78.93 67.53
  Q 78.89 66.99 78.35 67.00
  Q 71.21 67.12 64.23 66.61
  Q 63.34 66.54 62.47 66.78
  Q 60.83 67.23 60.73 67.19"
/>
<path stroke="#8c8d91" vector-effect="non-scaling-stroke" d="
  M 26.36 37.14
  L 25.72 37.16
  A 0.37 0.37 0.0 0 0 25.58 37.87
  Q 26.33 38.22 26.68 37.70
  A 0.36 0.36 0.0 0 0 26.36 37.14"
/>
<path stroke="#8c8d91" vector-effect="non-scaling-stroke" d="
  M 76.31 37.81
  Q 77.14 37.75 76.35 37.07
  A 0.39 0.37 -38.2 0 0 75.93 37.03
  L 75.47 37.28
  A 0.37 0.36 36.9 0 0 75.57 37.96
  Q 76.12 38.07 76.31 37.81"
/>
</g>
<path fill="#191b22" d="
  M 80.9564 69.7467
  A 13.29 13.29 0.0 0 1 67.6433 83.0135
  L 29.2433 82.9464
  A 13.29 13.29 0.0 0 1 15.9765 69.6333
  L 16.0436 31.2333
  A 13.29 13.29 0.0 0 1 29.3567 17.9665
  L 67.7567 18.0336
  A 13.29 13.29 0.0 0 1 81.0235 31.3467
  L 80.9564 69.7467
  Z
  M 18.56 34.01
  L 78.36 34.01
  A 0.68 0.68 0.0 0 0 79.04 33.33
  L 79.04 31.34
  A 11.82 11.43 0.0 0 0 67.22 19.91
  L 29.70 19.91
  A 11.82 11.43 -0.0 0 0 17.88 31.34
  L 17.88 33.33
  A 0.68 0.68 0.0 0 0 18.56 34.01
  Z
  M 79.04 35.75
  A 0.82 0.82 0.0 0 0 78.22 34.93
  L 18.84 34.93
  A 0.82 0.82 0.0 0 0 18.02 35.75
  L 18.02 49.39
  A 0.82 0.82 0.0 0 0 18.84 50.21
  L 78.22 50.21
  A 0.82 0.82 0.0 0 0 79.04 49.39
  L 79.04 35.75
  Z
  M 60.73 67.19
  Q 57.45 65.86 61.01 66.13
  Q 69.71 66.77 78.40 65.91
  Q 79.05 65.84 79.05 65.18
  L 79.00 51.36
  Q 79.00 50.71 78.36 50.72
  L 18.53 50.93
  Q 18.00 50.93 18.00 51.47
  L 18.00 65.49
  Q 18.00 65.98 18.49 65.98
  L 55.80 66.03
  Q 56.29 66.03 56.14 66.50
  Q 56.04 66.79 55.74 66.80
  Q 41.18 67.24 18.63 66.92
  Q 18.10 66.91 18.05 67.44
  C 17.23 77.44 23.33 81.03 32.20 81.01
  Q 48.17 80.98 64.15 81.00
  C 73.35 81.02 79.67 78.01 78.93 67.53
  Q 78.89 66.99 78.35 67.00
  Q 71.21 67.12 64.23 66.61
  Q 63.34 66.54 62.47 66.78
  Q 60.83 67.23 60.73 67.19
  Z"
/>
<path fill="#f9e65c" d="
  M 18.56 34.01
  A 0.68 0.68 0.0 0 1 17.88 33.33
  L 17.88 31.34
  A 11.82 11.43 -0.0 0 1 29.70 19.91
  L 67.22 19.91
  A 11.82 11.43 0.0 0 1 79.04 31.34
  L 79.04 33.33
  A 0.68 0.68 0.0 0 1 78.36 34.01
  L 18.56 34.01
  Z"
/>
<path fill="#ffffff" d="
  M 79.04 49.39
  A 0.82 0.82 0.0 0 1 78.22 50.21
  L 18.84 50.21
  A 0.82 0.82 0.0 0 1 18.02 49.39
  L 18.02 35.75
  A 0.82 0.82 0.0 0 1 18.84 34.93
  L 78.22 34.93
  A 0.82 0.82 0.0 0 1 79.04 35.75
  L 79.04 49.39
  Z
  M 26.36 37.14
  L 25.72 37.16
  A 0.37 0.37 0.0 0 0 25.58 37.87
  Q 26.33 38.22 26.68 37.70
  A 0.36 0.36 0.0 0 0 26.36 37.14
  Z
  M 76.31 37.81
  Q 77.14 37.75 76.35 37.07
  A 0.39 0.37 -38.2 0 0 75.93 37.03
  L 75.47 37.28
  A 0.37 0.36 36.9 0 0 75.57 37.96
  Q 76.12 38.07 76.31 37.81
  Z"
/>
<path fill="#191b22" d="
  M 26.36 37.14
  A 0.36 0.36 0.0 0 1 26.68 37.70
  Q 26.33 38.22 25.58 37.87
  A 0.37 0.37 0.0 0 1 25.72 37.16
  L 26.36 37.14
  Z"
/>
<path fill="#191b22" d="
  M 76.31 37.81
  Q 76.12 38.07 75.57 37.96
  A 0.37 0.36 36.9 0 1 75.47 37.28
  L 75.93 37.03
  A 0.39 0.37 -38.2 0 1 76.35 37.07
  Q 77.14 37.75 76.31 37.81
  Z"
/>
<path fill="#ffffff" d="
  M 60.73 67.19
  Q 60.83 67.23 62.47 66.78
  Q 63.34 66.54 64.23 66.61
  Q 71.21 67.12 78.35 67.00
  Q 78.89 66.99 78.93 67.53
  C 79.67 78.01 73.35 81.02 64.15 81.00
  Q 48.17 80.98 32.20 81.01
  C 23.33 81.03 17.23 77.44 18.05 67.44
  Q 18.10 66.91 18.63 66.92
  Q 41.18 67.24 55.74 66.80
  Q 56.04 66.79 56.14 66.50
  Q 56.29 66.03 55.80 66.03
  L 18.49 65.98
  Q 18.00 65.98 18.00 65.49
  L 18.00 51.47
  Q 18.00 50.93 18.53 50.93
  L 78.36 50.72
  Q 79.00 50.71 79.00 51.36
  L 79.05 65.18
  Q 79.05 65.84 78.40 65.91
  Q 69.71 66.77 61.01 66.13
  Q 57.45 65.86 60.73 67.19
  Z"
/>
</svg>
