<?xml version="1.0" encoding="UTF-8" standalone="no"?>
<!DOCTYPE svg PUBLIC "-//W3C//DTD SVG 1.1//EN" "http://www.w3.org/Graphics/SVG/1.1/DTD/svg11.dtd">
<svg xmlns="http://www.w3.org/2000/svg" version="1.1" viewBox="0.00 0.00 96.00 96.00">
<g stroke-width="2.00" fill="none" stroke-linecap="butt">
<path stroke="#157ea2" vector-effect="non-scaling-stroke" d="
  M 75.81 15.94
  L 20.18 15.95"
/>
<path stroke="#3e93b1" vector-effect="non-scaling-stroke" d="
  M 77.02 22.00
  L 57.60 22.01"
/>
<path stroke="#4798b4" vector-effect="non-scaling-stroke" d="
  M 57.60 22.01
  L 18.98 22.00"
/>
<path stroke="#6bb8d3" vector-effect="non-scaling-stroke" d="
  M 76.14 38.00
  Q 75.45 37.53 75.25 38.65
  Q 75.17 39.08 74.74 39.17
  Q 72.62 39.60 70.80 40.81
  Q 66.37 43.73 62.26 43.38"
/>
<path stroke="#5eb2ce" vector-effect="non-scaling-stroke" d="
  M 62.26 43.38
  C 62.59 40.16 60.52 39.71 58.48 41.05"
/>
<path stroke="#6bb8d3" vector-effect="non-scaling-stroke" d="
  M 58.48 41.05
  C 56.15 38.76 54.91 35.43 52.81 33.65
  C 44.45 26.54 39.24 39.13 36.21 44.29
  Q 35.93 44.76 36.05 45.30
  L 36.59 47.68
  Q 36.72 48.27 36.13 48.39
  Q 28.72 49.96 21.87 53.15
  Q 21.38 53.38 21.32 52.84
  Q 21.19 51.51 20.66 51.78"
/>
<path stroke="#85c6dd" vector-effect="non-scaling-stroke" d="
  M 57.60 22.01
  Q 58.35 22.53 57.32 23.86
  C 56.14 25.39 50.20 27.58 48.18 28.70
  Q 43.87 31.10 40.47 32.53
  Q 30.06 36.92 20.12 42.34"
/>
<path stroke="#359cbf" vector-effect="non-scaling-stroke" d="
  M 67.96 58.36
  L 66.74 59.83"
/>
<path stroke="#a0d1e1" vector-effect="non-scaling-stroke" d="
  M 66.74 59.83
  Q 65.06 56.51 63.14 53.38
  C 62.19 51.84 61.27 51.97 59.96 52.94
  Q 58.60 53.96 59.44 55.44
  L 62.77 61.33
  A 1.76 1.76 0.0 0 1 61.25 63.96
  L 55.68 64.02
  A 0.66 0.65 -0.0 0 1 55.02 63.37
  L 54.99 60.72
  A 0.56 0.56 0.0 0 0 54.03 60.33
  C 52.14 62.23 46.61 65.77 50.90 68.40"
/>
<path stroke="#359cbf" vector-effect="non-scaling-stroke" d="
  M 50.90 68.40
  Q 50.68 69.02 50.14 69.34
  Q 49.64 69.65 50.02 70.09
  L 50.60 70.76
  Q 50.93 71.14 50.48 71.36
  L 23.50 84.58"
/>
<path stroke="#a0d1e1" vector-effect="non-scaling-stroke" d="
  M 29.57 58.97
  C 25.77 69.46 38.32 68.37 43.90 67.90
  A 1.50 1.50 0.0 0 0 45.25 66.61
  Q 45.56 64.26 43.93 64.17
  Q 39.96 63.97 36.02 64.00"
/>
<path stroke="#4da9c8" vector-effect="non-scaling-stroke" d="
  M 58.48 41.05
  L 58.24 43.03"
/>
<path stroke="#add7e6" vector-effect="non-scaling-stroke" d="
  M 58.24 43.03
  Q 57.37 43.61 57.03 42.96
  C 55.44 39.97 53.56 35.69 50.81 34.07
  C 44.48 30.35 40.48 39.75 37.73 45.40
  Q 37.47 45.95 38.00 46.25
  L 40.29 47.54
  A 0.76 0.75 29.5 0 0 41.32 47.26
  L 46.28 38.69
  A 1.98 1.97 -44.9 0 1 49.70 38.69
  L 53.39 45.11
  Q 53.67 45.60 53.19 45.88
  L 50.83 47.26
  Q 50.23 47.61 50.75 48.06
  Q 51.59 48.78 52.83 48.84"
/>
<path stroke="#4da9c8" vector-effect="non-scaling-stroke" d="
  M 52.83 48.84
  Q 52.34 49.16 52.11 49.54
  A 0.53 0.52 23.6 0 0 52.42 50.32
  L 57.51 51.78
  Q 58.13 51.95 57.87 52.55
  C 56.28 56.24 60.62 58.86 59.95 61.19
  Q 59.74 61.94 58.85 62.32
  A 1.15 1.14 -23.7 0 1 57.35 61.74
  L 56.22 59.27
  A 1.76 1.76 0.0 0 0 53.41 58.72
  L 47.72 64.08
  A 0.65 0.64 45.0 0 1 46.83 64.07
  L 45.68 62.98
  Q 45.23 62.55 44.62 62.55
  L 36.17 62.43
  A 0.57 0.57 0.0 0 0 35.63 62.78
  Q 35.35 63.44 36.02 64.00"
/>
<path stroke="#add7e6" vector-effect="non-scaling-stroke" d="
  M 36.02 64.00
  L 33.47 63.42
  A 0.84 0.83 20.1 0 1 32.91 62.22
  L 35.63 57.04
  A 0.79 0.79 0.0 0 1 36.73 56.72
  L 39.03 58.06
  A 0.58 0.58 0.0 0 0 39.88 57.39
  L 37.71 50.14
  A 0.69 0.68 74.5 0 0 36.89 49.67
  L 29.77 51.47
  A 0.68 0.68 0.0 0 0 29.62 52.73
  L 31.78 53.86
  A 0.64 0.64 0.0 0 1 32.04 54.75
  L 29.57 58.97"
/>
<path stroke="#4da9c8" vector-effect="non-scaling-stroke" d="
  M 29.57 58.97
  Q 27.41 58.44 27.52 60.51
  C 27.76 65.32 23.69 63.22 21.42 65.97"
/>
<path stroke="#42a3c4" vector-effect="non-scaling-stroke" d="
  M 75.16 56.02
  L 69.07 59.11
  Q 68.68 59.31 68.42 58.96
  L 67.96 58.36"
/>
<path stroke="#4da9c8" vector-effect="non-scaling-stroke" d="
  M 67.96 58.36
  L 63.56 51.12
  A 1.06 1.06 0.0 0 0 62.80 50.62
  C 60.98 50.38 60.75 49.38 61.19 47.69
  Q 61.83 45.19 62.26 43.38"
/>
<path stroke="#94cbdd" vector-effect="non-scaling-stroke" d="
  M 66.74 59.83
  C 68.42 68.50 61.46 67.95 55.63 68.01
  A 0.61 0.61 0.0 0 0 55.02 68.62
  L 54.99 71.30
  Q 54.98 72.25 54.29 71.60
  L 50.90 68.40"
/>
<path stroke="#a0d1e1" vector-effect="non-scaling-stroke" d="
  M 58.24 43.03
  Q 59.31 42.01 60.46 42.01
  A 0.63 0.63 0.0 0 1 61.07 42.81
  L 59.14 49.52
  A 0.67 0.67 0.0 0 1 58.36 49.99
  L 52.83 48.84"
/>
</g>
<path fill="#2996bb" d="
  M 75.81 15.94
  L 20.18 15.95
  C 21.34 13.10 22.69 8.03 27.23 8.02
  Q 48.49 7.98 69.75 8.01
  C 72.85 8.01 74.71 13.26 75.81 15.94
  Z"
/>
<path fill="#006588" d="
  M 20.18 15.95
  L 75.81 15.94
  Q 80.50 16.62 79.93 21.37
  Q 79.86 21.93 79.30 21.95
  L 77.02 22.00
  L 57.60 22.01
  L 18.98 22.00
  L 16.70 21.94
  Q 16.14 21.93 16.07 21.37
  Q 15.48 16.70 20.18 15.95
  Z"
/>
<path fill="#8ecbe0" d="
  M 18.98 22.00
  L 57.60 22.01
  Q 58.35 22.53 57.32 23.86
  C 56.14 25.39 50.20 27.58 48.18 28.70
  Q 43.87 31.10 40.47 32.53
  Q 30.06 36.92 20.12 42.34
  L 18.98 22.00
  Z"
/>
<path fill="#7cc1d9" d="
  M 57.60 22.01
  L 77.02 22.00
  L 76.14 38.00
  Q 75.45 37.53 75.25 38.65
  Q 75.17 39.08 74.74 39.17
  Q 72.62 39.60 70.80 40.81
  Q 66.37 43.73 62.26 43.38
  C 62.59 40.16 60.52 39.71 58.48 41.05
  C 56.15 38.76 54.91 35.43 52.81 33.65
  C 44.45 26.54 39.24 39.13 36.21 44.29
  Q 35.93 44.76 36.05 45.30
  L 36.59 47.68
  Q 36.72 48.27 36.13 48.39
  Q 28.72 49.96 21.87 53.15
  Q 21.38 53.38 21.32 52.84
  Q 21.19 51.51 20.66 51.78
  L 20.12 42.34
  Q 30.06 36.92 40.47 32.53
  Q 43.87 31.10 48.18 28.70
  C 50.20 27.58 56.14 25.39 57.32 23.86
  Q 58.35 22.53 57.60 22.01
  Z"
/>
<path fill="#5aafcc" d="
  M 58.48 41.05
  L 58.24 43.03
  Q 57.37 43.61 57.03 42.96
  C 55.44 39.97 53.56 35.69 50.81 34.07
  C 44.48 30.35 40.48 39.75 37.73 45.40
  Q 37.47 45.95 38.00 46.25
  L 40.29 47.54
  A 0.76 0.75 29.5 0 0 41.32 47.26
  L 46.28 38.69
  A 1.98 1.97 -44.9 0 1 49.70 38.69
  L 53.39 45.11
  Q 53.67 45.60 53.19 45.88
  L 50.83 47.26
  Q 50.23 47.61 50.75 48.06
  Q 51.59 48.78 52.83 48.84
  Q 52.34 49.16 52.11 49.54
  A 0.53 0.52 23.6 0 0 52.42 50.32
  L 57.51 51.78
  Q 58.13 51.95 57.87 52.55
  C 56.28 56.24 60.62 58.86 59.95 61.19
  Q 59.74 61.94 58.85 62.32
  A 1.15 1.14 -23.7 0 1 57.35 61.74
  L 56.22 59.27
  A 1.76 1.76 0.0 0 0 53.41 58.72
  L 47.72 64.08
  A 0.65 0.64 45.0 0 1 46.83 64.07
  L 45.68 62.98
  Q 45.23 62.55 44.62 62.55
  L 36.17 62.43
  A 0.57 0.57 0.0 0 0 35.63 62.78
  Q 35.35 63.44 36.02 64.00
  L 33.47 63.42
  A 0.84 0.83 20.1 0 1 32.91 62.22
  L 35.63 57.04
  A 0.79 0.79 0.0 0 1 36.73 56.72
  L 39.03 58.06
  A 0.58 0.58 0.0 0 0 39.88 57.39
  L 37.71 50.14
  A 0.69 0.68 74.5 0 0 36.89 49.67
  L 29.77 51.47
  A 0.68 0.68 0.0 0 0 29.62 52.73
  L 31.78 53.86
  A 0.64 0.64 0.0 0 1 32.04 54.75
  L 29.57 58.97
  Q 27.41 58.44 27.52 60.51
  C 27.76 65.32 23.69 63.22 21.42 65.97
  L 20.66 51.78
  Q 21.19 51.51 21.32 52.84
  Q 21.38 53.38 21.87 53.15
  Q 28.72 49.96 36.13 48.39
  Q 36.72 48.27 36.59 47.68
  L 36.05 45.30
  Q 35.93 44.76 36.21 44.29
  C 39.24 39.13 44.45 26.54 52.81 33.65
  C 54.91 35.43 56.15 38.76 58.48 41.05
  Z"
/>
<path fill="#ffffff" d="
  M 58.24 43.03
  Q 59.31 42.01 60.46 42.01
  A 0.63 0.63 0.0 0 1 61.07 42.81
  L 59.14 49.52
  A 0.67 0.67 0.0 0 1 58.36 49.99
  L 52.83 48.84
  Q 51.59 48.78 50.75 48.06
  Q 50.23 47.61 50.83 47.26
  L 53.19 45.88
  Q 53.67 45.60 53.39 45.11
  L 49.70 38.69
  A 1.98 1.97 -44.9 0 0 46.28 38.69
  L 41.32 47.26
  A 0.76 0.75 29.5 0 1 40.29 47.54
  L 38.00 46.25
  Q 37.47 45.95 37.73 45.40
  C 40.48 39.75 44.48 30.35 50.81 34.07
  C 53.56 35.69 55.44 39.97 57.03 42.96
  Q 57.37 43.61 58.24 43.03
  Z"
/>
<path fill="#5aafcc" d="
  M 76.14 38.00
  L 75.16 56.02
  L 69.07 59.11
  Q 68.68 59.31 68.42 58.96
  L 67.96 58.36
  L 63.56 51.12
  A 1.06 1.06 0.0 0 0 62.80 50.62
  C 60.98 50.38 60.75 49.38 61.19 47.69
  Q 61.83 45.19 62.26 43.38
  Q 66.37 43.73 70.80 40.81
  Q 72.62 39.60 74.74 39.17
  Q 75.17 39.08 75.25 38.65
  Q 75.45 37.53 76.14 38.00
  Z"
/>
<path fill="#40a2c3" d="
  M 62.26 43.38
  Q 61.83 45.19 61.19 47.69
  C 60.75 49.38 60.98 50.38 62.80 50.62
  A 1.06 1.06 0.0 0 1 63.56 51.12
  L 67.96 58.36
  L 66.74 59.83
  Q 65.06 56.51 63.14 53.38
  C 62.19 51.84 61.27 51.97 59.96 52.94
  Q 58.60 53.96 59.44 55.44
  L 62.77 61.33
  A 1.76 1.76 0.0 0 1 61.25 63.96
  L 55.68 64.02
  A 0.66 0.65 -0.0 0 1 55.02 63.37
  L 54.99 60.72
  A 0.56 0.56 0.0 0 0 54.03 60.33
  C 52.14 62.23 46.61 65.77 50.90 68.40
  Q 50.68 69.02 50.14 69.34
  Q 49.64 69.65 50.02 70.09
  L 50.60 70.76
  Q 50.93 71.14 50.48 71.36
  L 23.50 84.58
  Q 22.58 83.91 22.50 83.25
  Q 21.74 76.60 21.42 65.97
  C 23.69 63.22 27.76 65.32 27.52 60.51
  Q 27.41 58.44 29.57 58.97
  C 25.77 69.46 38.32 68.37 43.90 67.90
  A 1.50 1.50 0.0 0 0 45.25 66.61
  Q 45.56 64.26 43.93 64.17
  Q 39.96 63.97 36.02 64.00
  Q 35.35 63.44 35.63 62.78
  A 0.57 0.57 0.0 0 1 36.17 62.43
  L 44.62 62.55
  Q 45.23 62.55 45.68 62.98
  L 46.83 64.07
  A 0.65 0.64 45.0 0 0 47.72 64.08
  L 53.41 58.72
  A 1.76 1.76 0.0 0 1 56.22 59.27
  L 57.35 61.74
  A 1.15 1.14 -23.7 0 0 58.85 62.32
  Q 59.74 61.94 59.95 61.19
  C 60.62 58.86 56.28 56.24 57.87 52.55
  Q 58.13 51.95 57.51 51.78
  L 52.42 50.32
  A 0.53 0.52 23.6 0 1 52.11 49.54
  Q 52.34 49.16 52.83 48.84
  L 58.36 49.99
  A 0.67 0.67 0.0 0 0 59.14 49.52
  L 61.07 42.81
  A 0.63 0.63 0.0 0 0 60.46 42.01
  Q 59.31 42.01 58.24 43.03
  L 58.48 41.05
  C 60.52 39.71 62.59 40.16 62.26 43.38
  Z"
/>
<path fill="#ffffff" d="
  M 36.02 64.00
  Q 39.96 63.97 43.93 64.17
  Q 45.56 64.26 45.25 66.61
  A 1.50 1.50 0.0 0 1 43.90 67.90
  C 38.32 68.37 25.77 69.46 29.57 58.97
  L 32.04 54.75
  A 0.64 0.64 0.0 0 0 31.78 53.86
  L 29.62 52.73
  A 0.68 0.68 0.0 0 1 29.77 51.47
  L 36.89 49.67
  A 0.69 0.68 74.5 0 1 37.71 50.14
  L 39.88 57.39
  A 0.58 0.58 0.0 0 1 39.03 58.06
  L 36.73 56.72
  A 0.79 0.79 0.0 0 0 35.63 57.04
  L 32.91 62.22
  A 0.84 0.83 20.1 0 0 33.47 63.42
  L 36.02 64.00
  Z"
/>
<path fill="#ffffff" d="
  M 66.74 59.83
  C 68.42 68.50 61.46 67.95 55.63 68.01
  A 0.61 0.61 0.0 0 0 55.02 68.62
  L 54.99 71.30
  Q 54.98 72.25 54.29 71.60
  L 50.90 68.40
  C 46.61 65.77 52.14 62.23 54.03 60.33
  A 0.56 0.56 0.0 0 1 54.99 60.72
  L 55.02 63.37
  A 0.66 0.65 -0.0 0 0 55.68 64.02
  L 61.25 63.96
  A 1.76 1.76 0.0 0 0 62.77 61.33
  L 59.44 55.44
  Q 58.60 53.96 59.96 52.94
  C 61.27 51.97 62.19 51.84 63.14 53.38
  Q 65.06 56.51 66.74 59.83
  Z"
/>
<path fill="#2996bb" d="
  M 75.16 56.02
  L 73.69 82.34
  A 3.86 3.86 0.0 0 1 69.85 85.99
  Q 48.01 86.04 25.81 85.98
  Q 24.50 85.97 23.50 84.58
  L 50.48 71.36
  Q 50.93 71.14 50.60 70.76
  L 50.02 70.09
  Q 49.64 69.65 50.14 69.34
  Q 50.68 69.02 50.90 68.40
  L 54.29 71.60
  Q 54.98 72.25 54.99 71.30
  L 55.02 68.62
  A 0.61 0.61 0.0 0 1 55.63 68.01
  C 61.46 67.95 68.42 68.50 66.74 59.83
  L 67.96 58.36
  L 68.42 58.96
  Q 68.68 59.31 69.07 59.11
  L 75.16 56.02
  Z"
/>
</svg>
