<?xml version="1.0" encoding="UTF-8" standalone="no"?>
<!DOCTYPE svg PUBLIC "-//W3C//DTD SVG 1.1//EN" "http://www.w3.org/Graphics/SVG/1.1/DTD/svg11.dtd">
<svg xmlns="http://www.w3.org/2000/svg" version="1.1" viewBox="0.00 0.00 100.00 100.00">
<g stroke-width="2.00" fill="none" stroke-linecap="butt">
<path stroke="#627c8a" vector-effect="non-scaling-stroke" d="
  M 83.93 49.99
  A 33.92 33.92 0.0 0 0 50.01 16.07
  A 33.92 33.92 0.0 0 0 16.09 49.99
  A 33.92 33.92 0.0 0 0 50.01 83.91
  A 33.92 33.92 0.0 0 0 83.93 49.99"
/>
<path stroke="#d2eaec" vector-effect="non-scaling-stroke" d="
  M 70.05 26.93
  L 69.55 26.02
  Q 69.36 25.67 69.01 25.84
  L 68.76 25.96"
/>
<path stroke="#5c747e" vector-effect="non-scaling-stroke" d="
  M 68.76 25.96
  Q 68.88 24.81 67.28 24.75"
/>
<path stroke="#d2eaec" vector-effect="non-scaling-stroke" d="
  M 67.28 24.75
  Q 67.09 23.45 66.09 23.77"
/>
<path stroke="#5c747e" vector-effect="non-scaling-stroke" d="
  M 66.09 23.77
  Q 64.68 22.51 62.99 22.16"
/>
<path stroke="#d2eaec" vector-effect="non-scaling-stroke" d="
  M 62.99 22.16
  Q 62.42 21.65 60.87 21.25"
/>
<path stroke="#5c747e" vector-effect="non-scaling-stroke" d="
  M 60.87 21.25
  C 45.84 15.22 28.42 22.80 22.04 36.94
  C 15.94 50.48 19.85 66.58 32.18 75.12
  C 50.22 87.61 74.27 78.59 79.82 57.51
  Q 83.76 42.53 72.65 29.04
  Q 71.54 27.69 70.05 26.93"
/>
<path stroke="#888781" vector-effect="non-scaling-stroke" d="
  M 60.87 21.25
  Q 60.77 21.59 60.68 21.71
  Q 60.63 21.76 60.33 21.67
  Q 45.13 17.29 33.70 24.88
  C 16.52 36.28 15.21 61.02 31.89 73.82
  C 41.61 81.28 54.68 81.88 65.21 75.78
  C 82.93 65.52 84.53 41.91 70.39 27.87
  Q 69.97 27.45 70.05 26.93"
/>
<path stroke="#888781" vector-effect="non-scaling-stroke" d="
  M 62.99 22.16
  Q 63.97 24.26 66.09 23.77"
/>
<path stroke="#888781" vector-effect="non-scaling-stroke" d="
  M 67.28 24.75
  Q 67.10 25.45 67.81 25.94
  Q 68.06 26.11 68.76 25.96"
/>
<path stroke="#888781" vector-effect="non-scaling-stroke" d="
  M 42.04 34.21
  A 0.67 0.67 0.0 0 0 41.03 34.78
  L 40.97 65.14
  A 0.67 0.67 0.0 0 0 41.99 65.72
  L 67.48 50.59
  A 0.67 0.67 0.0 0 0 67.49 49.43
  L 42.04 34.21"
/>
<path stroke="#5c747e" vector-effect="non-scaling-stroke" d="
  M 42.48 35.66
  A 0.33 0.33 0.0 0 0 41.98 35.94
  L 42.03 64.17
  A 0.33 0.33 0.0 0 0 42.53 64.45
  L 66.24 50.30
  A 0.33 0.33 0.0 0 0 66.24 49.73
  L 42.48 35.66"
/>
</g>
<path fill="#1f212b" d="
  M 85.90 49.98
  A 35.91 35.91 0.0 0 1 49.99 85.89
  A 35.91 35.91 0.0 0 1 14.08 49.98
  A 35.91 35.91 0.0 0 1 49.99 14.07
  A 35.91 35.91 0.0 0 1 85.90 49.98
  Z
  M 83.93 49.99
  A 33.92 33.92 0.0 0 0 50.01 16.07
  A 33.92 33.92 0.0 0 0 16.09 49.99
  A 33.92 33.92 0.0 0 0 50.01 83.91
  A 33.92 33.92 0.0 0 0 83.93 49.99
  Z"
/>
<path fill="#a5d6e8" d="
  M 83.93 49.99
  A 33.92 33.92 0.0 0 1 50.01 83.91
  A 33.92 33.92 0.0 0 1 16.09 49.99
  A 33.92 33.92 0.0 0 1 50.01 16.07
  A 33.92 33.92 0.0 0 1 83.93 49.99
  Z
  M 70.05 26.93
  L 69.55 26.02
  Q 69.36 25.67 69.01 25.84
  L 68.76 25.96
  Q 68.88 24.81 67.28 24.75
  Q 67.09 23.45 66.09 23.77
  Q 64.68 22.51 62.99 22.16
  Q 62.42 21.65 60.87 21.25
  C 45.84 15.22 28.42 22.80 22.04 36.94
  C 15.94 50.48 19.85 66.58 32.18 75.12
  C 50.22 87.61 74.27 78.59 79.82 57.51
  Q 83.76 42.53 72.65 29.04
  Q 71.54 27.69 70.05 26.93
  Z"
/>
<path fill="#121113" d="
  M 60.87 21.25
  Q 60.77 21.59 60.68 21.71
  Q 60.63 21.76 60.33 21.67
  Q 45.13 17.29 33.70 24.88
  C 16.52 36.28 15.21 61.02 31.89 73.82
  C 41.61 81.28 54.68 81.88 65.21 75.78
  C 82.93 65.52 84.53 41.91 70.39 27.87
  Q 69.97 27.45 70.05 26.93
  Q 71.54 27.69 72.65 29.04
  Q 83.76 42.53 79.82 57.51
  C 74.27 78.59 50.22 87.61 32.18 75.12
  C 19.85 66.58 15.94 50.48 22.04 36.94
  C 28.42 22.80 45.84 15.22 60.87 21.25
  Z"
/>
<path fill="#fefdef" d="
  M 60.87 21.25
  Q 62.42 21.65 62.99 22.16
  Q 63.97 24.26 66.09 23.77
  Q 67.09 23.45 67.28 24.75
  Q 67.10 25.45 67.81 25.94
  Q 68.06 26.11 68.76 25.96
  L 69.01 25.84
  Q 69.36 25.67 69.55 26.02
  L 70.05 26.93
  Q 69.97 27.45 70.39 27.87
  C 84.53 41.91 82.93 65.52 65.21 75.78
  C 54.68 81.88 41.61 81.28 31.89 73.82
  C 15.21 61.02 16.52 36.28 33.70 24.88
  Q 45.13 17.29 60.33 21.67
  Q 60.63 21.76 60.68 21.71
  Q 60.77 21.59 60.87 21.25
  Z
  M 42.04 34.21
  A 0.67 0.67 0.0 0 0 41.03 34.78
  L 40.97 65.14
  A 0.67 0.67 0.0 0 0 41.99 65.72
  L 67.48 50.59
  A 0.67 0.67 0.0 0 0 67.49 49.43
  L 42.04 34.21
  Z"
/>
<path fill="#121113" d="
  M 62.99 22.16
  Q 64.68 22.51 66.09 23.77
  Q 63.97 24.26 62.99 22.16
  Z"
/>
<path fill="#121113" d="
  M 67.28 24.75
  Q 68.88 24.81 68.76 25.96
  Q 68.06 26.11 67.81 25.94
  Q 67.10 25.45 67.28 24.75
  Z"
/>
<path fill="#121113" d="
  M 42.04 34.21
  L 67.49 49.43
  A 0.67 0.67 0.0 0 1 67.48 50.59
  L 41.99 65.72
  A 0.67 0.67 0.0 0 1 40.97 65.14
  L 41.03 34.78
  A 0.67 0.67 0.0 0 1 42.04 34.21
  Z
  M 42.48 35.66
  A 0.33 0.33 0.0 0 0 41.98 35.94
  L 42.03 64.17
  A 0.33 0.33 0.0 0 0 42.53 64.45
  L 66.24 50.30
  A 0.33 0.33 0.0 0 0 66.24 49.73
  L 42.48 35.66
  Z"
/>
<path fill="#a5d6e8" d="
  M 42.48 35.66
  L 66.24 49.73
  A 0.33 0.33 0.0 0 1 66.24 50.30
  L 42.53 64.45
  A 0.33 0.33 0.0 0 1 42.03 64.17
  L 41.98 35.94
  A 0.33 0.33 0.0 0 1 42.48 35.66
  Z"
/>
</svg>
